<?xml version="1.0" encoding="UTF-8"?>
<svg id="Layer_1" data-name="Layer 1" xmlns="http://www.w3.org/2000/svg" viewBox="0 0 2229.59 1539.31">
  <path d="M1555.21,1312.22l51.38-7.37,39.54-5.29,455.07-.22c17.1-51.99,57.49-91.29,110.48-104.29l.03-730.98c-56.31-15.77-92.34-53.66-111.52-107.09l-730.68.1c-1.38-5.49.85-11.99,5.05-17.95l739.44-.04c13.86,57,56.04,100.91,115.59,110.9l-.13,759.74c-59.6,8.11-100.91,51.9-115.86,107.78l-558.17-.58-3.78-2.55c-.6-.41,2.8-2.06,3.55-2.17Z"/>
  <path d="M647.42,1308.27l36.51,5.63c-2.22,2.19-6.77,3.45-10.03,3.43l-94.47-.7-462.71.85c-14.46-56.83-58.15-99.79-114.88-107.96l-1.84-20.67V450.45c57.85-10.63,102.72-52.55,115.27-111.32l706.43-.25c3.81,5.35,5.43,11.76,5.7,18.12l-697.49.08c-16.95,53.85-59.64,92.17-112.13,107.1l-.07,731.07c57.28,14.51,91.3,50.24,111.81,104.13l415.84-.13c35.32-.01,66.86,3.58,102.06,9Z"/>
  <path d="M378.3,549.66c5.38,17.18-14.11,13.78-17.21,30.86l-17.2,95-32.03,180.98-32.17.21-35.57-189.57c-10.29,42.45-16.88,81.62-24.11,122.65l-11.82,67.06-33.05-.89-28.57-165.34-18.94-109.18c-3.14-18.11-21.17-15.49-14.73-31.68l74.37-.24c5.18,19-15.87,12.94-12.57,32.48l29.25,173.09,16.9-90.24,22.47-115.32,25.88.07,38.68,204.44,28.5-170.2c1.57-9.39-2.53-17.68-12.97-18.94l-1.8-15.34,56.69.1Z"/>
  <path d="M1239.36,839.52l8.64,5.08c2.09,1.23,1.7,7.59,1.23,11.1l-74.86-.15c-.12-9.86,4.69-13.62,12.59-17.31l2.32-20.81.15-108.12-59.1.13-.32,117.42c-.05,18,23.38,13.25,12.81,28.9l-72.95-.05c-.3-4.72.06-9.68,1.09-12.5,8.05-2.15,12.96-7.61,12.95-16.04l-.2-251.42c0-9.54-19.85-11.19-13.52-26.26l73.83.74c5.08,17.19-13.81,11.13-13.8,33.53l.05,103.28,58.17.16.66-28.06-1.03-84.01c-.1-8.11-16.6-11.08-12.22-25.38l71.7-.1c4.68,5.95.31,14.71-6.7,17.2-3.97,1.41-6.93,9.6-6.93,14.7l.03,241.63c0,5.15,2.42,13.9,5.4,16.34Z"/>
  <path d="M768.55,856.93c-10.66.42-20.64-4.48-23.51-15.42l-30.96-118.19c-5.81-4.73-14.75-5.02-22.31-3.56l-.22,107.71c-.02,7.7,5.34,13.56,12.68,15.77,1.47,2.47,1.95,8.05,1.54,12.4l-74.56-.03c-5.76-15.43,14.46-13.26,14.46-30.38l.04-243.77c0-9.08-5.47-15.6-13.14-18.61l-2.24-8.61c-.55-2.11,5.32-4.5,7.6-4.5l79.68.14c9.85.02,21.1,3.84,30.33,7.24,48.64,17.93,51.73,98.8,22.59,133.24-7.1,8.39-17.8,13.2-28.29,18.94,12.79,7.81,20.28,18.5,23.72,32.06l20.58,81.13c2.41,9.5,6.44,16.7,17.14,19.21l.19,13.82-35.34,1.4ZM737.62,593.8c-3-13.33-14.9-21.56-27.24-21.34l-18.69.34v124.19c10.67.48,22.02.81,30.73-5.1,22-14.92,21.9-68.38,15.21-98.1Z"/>
  <path d="M1438.02,844.88c-22.26,17.54-54.36,19.15-78.63,6.95-18.15-9.12-29.48-25.97-35.53-44.67-5.3-16.38-9.26-33.23-9.28-50.72l-.17-106.79c-.03-20.26,5.17-40.73,12.35-58.59,11.03-27.42,34.44-43.3,62.78-44.44s54.91,11.87,68.23,39.17c11.21,22.97,15.05,48.63,15.04,74.71l-.03,86.01c0,31.64-9.22,78.22-34.78,98.36ZM1424.24,757.38l.15-81.96-2.03-56.01c-.95-26.12-6.29-51.46-29.53-51.38-10.32.04-20.58,7.64-23.35,19.26-3.5,14.66-6.49,30.13-6.52,45.74l-.21,134.74c-.03,17.7,2.62,35.01,6.72,51.71,3.1,12.64,13.9,18.85,25.19,18.62,28.8-.57,29.53-47.19,29.59-80.72Z"/>
  <path d="M1702.59,549.71c2.6.01,4.28,8.17,3,10.17-5.07,7.95-17.04,6.11-17.05,20.8l-.17,198.53c-.03,36.3-12.87,70.86-48.79,78.11-35.72,7.21-71.11-2.75-84.5-37.36-4.96-12.82-5.83-26.43-5.9-40.73l-1.04-205.64c-2.55-4.03-8.35-8.03-12.66-10.7-2.26-2.01-2.24-8.88-1.49-13.33l75.85.07c6.96,15.65-7.2,13.74-14.28,25.98l.09,215.71c0,10.43,2.15,22.75,7.04,31.11,7.99,13.66,25.16,15.73,39.92,11.13,11.43-3.56,22.72-17.3,22.75-32.98l.41-223.15c.02-9.77-20.18-11.35-15.25-27.99l52.07.28Z"/>
  <path d="M949.31,709.85l-25.9-.44-.24,126.2,34.28-.62c9.53-.17,19.7-6.04,23.05-14.9l15.96-42.28c2.05-1.57,7.4-2.39,11.32-2.32l-1.15,22.43-2.87,57.98-140.15-.32c-8.45-14.46,13.93-12.33,13.93-30.51l-.07-243.09c0-18.67-23.07-16.24-13.63-32.08l137.21-.24,1.06,75.26c-16.42,12.31-11.57-23.1-28.99-47.2-6.43-4.63-19.15-6.3-26.93-6.22l-22.64.22-.07,115.64c8.54.41,18.69,1.1,25.68-2.58,15.61-8.2,11.4-39.02,26.28-28.35l.07,80.56c0,4-2.22,9.05-4.64,9.06-10.81.06-7.21-19.5-21.56-36.19Z"/>
  <path d="M2047.96,711.57c-6.22-3.48-18.46-2.2-26.22-1.84l-.08,125.68,33.55-.66c13.03-.26,22.33-10.12,26.44-21.56l12.19-33.84c.7-1.95,5.13-4.54,7.16-4.38,2.59.2,4.75,4.8,4.51,7.96l-2.35,30.49-1.73,42.44-139.57-.1c-10.1-14.49,12.95-11.29,12.95-28.54l-.02-245.58c0-15.32-10.9-13.39-15.42-23.49-.96-2.14,1.92-8.49,4.68-8.5l135.3-.14.15,75.97-12.48-.79-11.99-38.61c-2.56-8.24-11.71-13.62-20.3-13.8l-33.09-.69.11,115.79c7.7.3,17.49.87,24.02-1.85,17.81-7.43,10.21-37.66,26.27-31.69l.03,91.34c-15.23,1.88-10.24-20.16-24.12-33.62Z"/>
  <path d="M504.72,773.25l-58.57.26-10.42,56.34c-.92,4.98,9.2,12.08,14.6,12.94l1.45,12.83-54.84.06c-2.09-1.61-1.91-10.68.76-12.31,8.4-4.43,14.58-11.51,16.66-21.73l55.28-272.01,37.11.28,56.76,279.25,13.05,13.77c2.47,2.61,4.45,10.25,1.31,12.5l-74.38.28c-2.85-2.09-2.1-9.44.34-11.91,7.78-2.63,12.33-9.59,10.88-17.33l-9.98-53.23ZM499.87,751.71l-24.03-122.5-24.79,122.48,48.82.02Z"/>
  <path d="M1861.39,853.06c-43.82,18.95-69.35-9.67-74.53-8-7.32,2.37-10.29,13.43-21.4,11.99l-.03-91.72,13.54.11c4.69,33.59,17.03,75.35,50.33,73.47,17.12-.97,27.19-15.12,29.22-31.11,2.63-20.7-1.79-43-16.24-59.27l-50.68-57.03c-19.22-21.63-30.56-48.41-28.95-77.59,1.08-19.66,7.74-39.9,22.72-52.44,19.26-16.14,45.96-20.93,67.81-9.72,5.64,2.89,12.75,5.6,17.88,6.3,4.38-7.08,9.02-9.24,16.75-8.32l.45,82.6c-4.15,1.23-11.54.65-15.54-1.82-3.16-19.12-7.87-37.03-20.63-51.71-7.52-8.66-22.57-12.61-33.23-8.03-12.72,5.47-15.58,19.75-15.62,32.73-.05,17.08,8.07,32.11,19.58,45.08l56.28,63.49c35.3,46.52,29.01,120.78-17.7,140.98Z"/>
  <path d="M1684.69,1275.07l53.3-1.59,291.44.17,54.36.03c19.42-46.01,56.15-80.85,102.19-97.54l.1-190.93.17-409.49.39-93.24c-47.16-17.26-83.5-52.69-103.18-98.84l-26.4,1.28-701.07.39c-1.2-.5-2.47-5-1.34-6.06s4.81-2.09,7.41-2.1l471.53-.4,254.08.28c18.26,48.89,56.4,84.62,104.62,100.91l.07,703.08c-51.32,15.57-84.06,52.39-105.49,100.07l-266.16-.54-112.98-.59-52.42-1.15c9-3.37,18.26-3.4,29.38-3.74Z"/>
  <path d="M566.92,1275.06c4.84.12,8.78,1.28,11.24,3.73l-28.7,1.27-261.45.39-72.28.26-73.3.02c-17.41-45.73-54.68-86.43-104.77-99l.03-704.06c48.49-15.57,87.75-51.82,105.02-100.71l690.56.02,6.18,1.52c1.4.34,1.44,3.99.89,6.81l-681.84-.19c-5.97-2.45-11.07-1.48-13.39,3.56-19.97,43.34-55.41,76.55-101.28,93.78l-.13,694.94c47.17,14.38,85.01,49.49,102.33,96.1l361.32.04,59.57,1.49Z"/>
  <rect x="1157.93" y="947.26" width="885.78" height="9.97"/>
  <rect x="187.62" y="947.43" width="866.17" height="9.76"/>
  <path d="M1399.07,1271.36l-6.31.33c-.76.04-1.08-2.33-.67-2.96.62-.96,2.76-2.76,4.08-3.17l36.49-11.24,92.62-23.16,117.49-12.82,25.07-.25-128.68,24.15-95.99,20.42-44.09,8.7Z"/>
  <path d="M1250.91,1064.93l-12.58,24.42c-.57,1.1-2.79,3.31-3.54,3.94s-3.43-2.75-3.98-3.92l-12.26-26.54-1.21,31.83c-.08,2.06-5.45,4.06-6.7,2.99-1.56-1.33-2.46-5.1-2.4-8.33l.72-37.32c.03-1.43,1.51-4.64,2.47-5.69,1.21-1.33,7.05.47,8,2.4l15.48,31.63,16.64-32.91,9.8-.13-1.21,50.14-7.62-.22-1.61-32.31Z"/>
  <path d="M1733.55,1096.76l-.65-32.32-12.96,24.35c-.54,1.02-2.45,2.9-3.26,2.97-1.22.11-3.96-1.93-4.62-3.35l-11.92-25.96-.55,34.75c-1.44.79-8.26-.41-8.25-2.12l.47-48.22c7.33-2.62,10.47,2.64,12.72,7.64l10.99,24.44,16.04-29.02c1.09-1.97,6.94-3.68,9.94-3.98l.3,51.57-8.25-.74Z"/>
  <path d="M985.29,1072.08c2,2.8,4.76,8.07,4.89,12.23.11,3.48-3.97,11.49-7.46,11.68l-30.85,1.62.02-50.87,27.42,1.29c3.44.16,9.21,5.83,8.64,9.04l-2.66,15.01ZM978.13,1056.59c-3.24-2.64-14.03-3.71-15.84.06-1.25,2.6-1.82,10.66.51,10.76l9.35.41c2.32.1,6.77-1.66,7.41-3.63.51-1.58-.16-6.55-1.44-7.6ZM979.88,1087.75c2.71-.31,1.13-10.67-1.67-10.99l-16.4-1.85-.07,14.94,18.14-2.1Z"/>
  <path d="M442.25,1099.21l6.37.42c1.25.08,1.66,3.27,1.32,4.48s-4.31,3.59-5.42,3.04l-16.18-8.02c-6.41-3.18-15.08-3.1-19.68-7.69-4.6-4.59-7.21-12.97-7.09-19.77.28-15.51,11-25.97,26.32-25.02,6.2.38,13.47,2.57,17.02,6.62,3.99,4.56,5.08,11.28,5.39,18.15.39,8.63-3.94,15.23-8.76,21.63l-2.53,3.36c-.5.66,2.36,2.75,3.24,2.81ZM442.46,1069.32c-1.25-10-8.01-15.14-17.57-15.07-8.11.06-14.06,8.3-14.32,17.29-.31,10.57,7.27,19.01,16.3,18.35,10.67-.78,16.91-10.03,15.59-20.57Z"/>
  <path d="M1867.54,1096.82c-3.55,1.98-8.41-1.14-10.65-4.22l-20.98-28.8-.84,27.37c-.05,1.6-.73,4.54-1.15,5.69-.56,1.53-5.99.09-7.39-1.02l-.67-44.18c-.02-1.42,1.66-5.45,3.04-5.78s5.57,1.25,6.53,2.54l23.66,31.75.46-28.9c.03-1.71,2.13-5.25,3.57-5.46,1.81-.26,4.88,3.21,4.86,5.15l-.44,45.85Z"/>
  <path d="M1559.52,1096.38c-4.26,2.64-9.4-.86-12.06-4.5l-19.56-26.82-2.04,30.12c-.12,1.73-6.13,2.65-8.35,1.93l.24-49.74c4.4-3.09,10.22.78,12.96,4.95l20.48,31.13.49-33.16c.02-1.45,2.28-4.42,3.15-5.16s4.73,1.69,4.73,2.97l-.05,48.28Z"/>
  <path d="M2041.1,1093.67c0,.81-.64,4.27-1.36,4.46l-4.44,1.18-27.15-36.71-.37,34.8-8.29-.24.61-51.04c3.31-.13,9.12,2,10.48,4.05l21.04,31.8,1.87-35.81,5.08-.56c1.26-.14,2.54,4.05,2.54,5.46v42.63Z"/>
  <path d="M1126.94,956.83l-20.31,22.85-24.56-25.58,24.17-25.17,19.27,19.09c1.51,1.49,2.99,7.07,1.44,8.82Z"/>
  <path d="M295.63,1097.27c-2.29.55-7.92-.52-9.38-2.55l-22.99-32.09-1.32,32.36c-.06,1.46-4.22,2.55-7.9,2.75l.75-52.9c6.89,2.03,10.9,5.03,13.82,9.36l18.22,27.07,1.21-33.79,7.76-.42-.17,50.22Z"/>
  <path d="M819.51,1096.56c-.04,2.57-8.59-.83-9.99-2.9l-21.34-31.5-1.04,35.26-8.45-1.02.83-51.27c4.41.84,8.54,2.88,10.42,5.53l21.08,29.77,1.05-29c.05-1.3.98-4.32,1.42-5.42.58-1.45,6.74.23,6.71,2.15l-.7,48.39Z"/>
  <path d="M1383.61,1097.48c-16.29,2-13.06-21.01-27.97-18.63l-2.2,18.59-7.77-.04.21-51.05,27.52,1.73c5.97.38,9.79,9.44,9.44,14.18-.51,6.89-2.56,10.76-9.55,16.21l10.31,19.01ZM1371.65,1068.88c2.3-.42,3.32-10.4,1.19-11.25-3.91-1.55-11.53-2.5-17.48-2.69l-1.03,17.11,17.32-3.17Z"/>
  <path d="M1049.6,1097.42c-17.51,2.51-12.23-23.72-29.34-18.93l-.86,18.89-7.7-.03-.12-50.15c10.87-.13,20.16-.42,30.77,2.02,4.31.99,6.4,10.95,5.94,15.07-.63,5.6-2.9,9.07-9.14,14.36l10.43,18.77ZM1032.05,1071.46c2.51-.03,6.57-3.45,7.54-5.66.81-1.84.06-8.44-1.96-8.83l-17.02-3.26-.99,17.89,12.43-.15Z"/>
  <path d="M1403.68,1319.27c-5.06.42-7.5-13.44-2.39-14.51l72.56-15.17c16.2-3.39,31.32-8.43,48.37-7.61l-118.54,37.29Z"/>
  <path d="M1315.98,1087.65l-24.9-.27-2.84,8.19c-.66,1.9-5.38,2.06-9.57,1.3l18.87-47.25c.87-2.19,8.89-5.55,9.79-3.31l20.01,50.13-6.43.83c-2,.26-3.29-3.63-4.92-9.63ZM1311.36,1078.58l-7.76-21.8-9.29,22.34,17.05-.53Z"/>
  <path d="M1125.82,1075.55l-14.51-.08.31,13.88,23.94.09-.12,8.07-33.79-.07.15-50.26,32.24-.22c1.69.41,1.04,7.72-.87,7.73l-22.39-.02.17,12.76,20.58.16-.78,5.89c-.15,1.14-3.65,2.09-4.92,2.09Z"/>
  <path d="M646.5,1087.25l-24.07-.21-3.91,8.67c-.81,1.8-6.2,1.89-8.55,1.52l21.75-52.26c5.09,2.3,8.52,5.78,10.24,10.08l16.48,41.08-7.6,1c-1.99.26-2.93-3.74-4.35-9.88ZM642.51,1079.58l-7.94-22.14-8.55,21.09,16.49,1.05Z"/>
  <path d="M1969.62,1075.52l-15.35-.17-.43,13.97h25.42s-.33,6.21-.33,6.21c-.06,1.2-3.8,1.95-5.35,1.95l-27.85-.06-.05-50.29h33.62s-.31,6.47-.31,6.47c-.06,1.2-3.66,1.25-5.14,1.24l-19.94-.14.2,12.77,19.3.12c1.15,0,3.02,3.85,2.31,4.76-.94,1.22-4.34,3.19-6.1,3.17Z"/>
  <path d="M1425.49,1069.47l19.02,27.08c-3.21,1.55-9.98-.26-12.15-3.15l-14.75-19.61c-2.99,6.17-3.64,9.75-4.08,15.47l-.59,7.82c-.12,1.63-6.79,1.03-7.4-.49s-.88-3.75-.87-6.32l.11-39.32c0-1.66,2.2-5.89,3.84-5.87,2.05.03,4.66,3.61,4.85,5.92l1.45,17.82,18.75-20.48c1.29-1.41,8.92-1.21,9.95-.78l-18.12,21.91Z"/>
  <path d="M1487.94,1075.79l-15.62.49-.43,12.82,23.41.25c1.17.01,3.04,3.98,2.43,4.98-.81,1.34-4.12,3.22-5.89,3.21l-28.86-.09.06-50.33,32.63.21-.39,8.02-22.91-1.24-.6,13.62,21.61-.12-.42,5.98c-.09,1.23-3.77,2.16-5.02,2.2Z"/>
  <path d="M512.07,1050.89l-.96,32.21c-.33,11.24-13.91,15.42-23.04,14.21-8.53-1.12-15.97-4.46-16.35-14.36l-1.22-32.14c-.05-1.2,2.07-4.2,2.94-4.79,1.15-.77,5.78,1.1,5.84,2.39l1.52,36.2c.32,7.72,19.99,7.03,20.33.88l1.9-34.6c.09-1.59,2.06-5.03,3.58-5.25,1.9-.27,5.51,3.21,5.45,5.25Z"/>
  <path d="M1795.97,1054.45l.58-7.15c.13-1.6,4.98-1.62,7.42-1.37.62,13.54,1.36,28.8-1.63,42.03-2.15,9.54-15.09,10-22.18,9.41-9.95-.83-16.29-6.21-16.31-16l-.09-32.49c0-2.32,7.73-4.07,7.84-1.81l1.9,39.73c4.75,4.26,18.06,4.64,20.04-1.15,3.24-9.45,1.53-20.23,2.43-31.21Z"/>
  <path d="M223.85,1087.79l-25.08-1.77c-.9,6.98-4.02,13.44-11.89,10.77l18.35-46.56c.57-1.44,3.28-3.78,4.19-4.34,1.23-.75,5.68.92,6.41,2.72l18.8,46.5c-.63,1.52-6.56,3.27-7.15,1.77l-3.62-9.1ZM219.48,1079.21l-8.91-23.07-8.54,23.04,17.45.03Z"/>
  <path d="M1925.63,1097.65l-38.44-.02c.52-3.24,1.56-8.04,2.81-9.8l22.86-32.23-19.69-1.11c-1.42-.08-4.59-1.46-5.69-2.09s1.56-5.56,2.87-5.52l36.95,1.05-27.88,41.16,26.14.54.08,8.02Z"/>
  <polygon points="753.71 1075.46 733.86 1075.4 733.64 1089.31 757.9 1089.32 757.71 1097.52 724.96 1097.59 725.51 1047.13 758.05 1046.97 757.67 1055 733.73 1054.82 733.69 1067.51 753.83 1067.44 753.71 1075.46"/>
  <path d="M1388.15,1235.02c-5.53,1.46-10.11-.87-11.8-5.33-1.19-3.16,3.2-9.14,7.44-9.59l25.95-2.81,66.33-5.52-87.92,23.25Z"/>
  <path d="M1183.18,1067.63c2.63-.03,2.82,8.28.58,8.3l-18.38.18-1.66,19c-.06.68-1.2,3.68-1.85,3.54l-5.76-1.22v-50.15s31.77-.4,31.77-.4c1.96-.02,1.38,8.03-.87,8.05l-21.41.22-.08,12.65,17.65-.17Z"/>
  <path d="M691.68,1096.97l-8.27.47-.6-41.6-15.14-1.16.6-7.45,36.78-.47c1.15-.01,3.6,4.77,2.75,5.59-1.15,1.1-4.09,2.67-5.8,2.73l-9.97.36-.34,41.53Z"/>
  <path d="M337.93,1096.91l-8.15.63v-42.34s-11.99-.15-11.99-.15c-1.15-.01-3.65-1.93-4.37-2.86s1.55-4.95,3.11-4.95l36.34.07.97,4.91c.24,1.19-3.06,2.66-4.31,2.71l-11.55.42-.06,41.57Z"/>
  <path d="M584.79,1097.56l-6.02.04c-1.36,0-2.24-3.93-2.22-5.35l.59-36.98-13.21-.31c-1.11-.03-3.69-1.86-4.41-2.77s1.54-5.06,3.08-5.05l38.15.08.87,4.92c.21,1.18-3.53,2.48-4.96,2.45l-12.33-.3.45,43.27Z"/>
  <path d="M1078.64,1097.05c0,3.16-9.01,1.06-9-1.53l.08-43.89c0-1.42,1.22-4.54,1.78-5.61.73-1.4,7.14.24,7.14,1.74v49.3Z"/>
  <path d="M542.82,1094.04c.02,2.18-4.47,4.05-8.85,3.53l-.41-46.35c-.02-1.75,2.16-5.53,3.71-5.98,2.22-.63,5.1,2.95,5.12,5.64l.42,43.15Z"/>
  <path d="M380.15,1096.81l-8.43.29-.02-47.81c0-2.12,5.28-3.86,8.11-3.12l.34,50.65Z"/>
  <circle cx="885.46" cy="1072.19" r="8.84"/>
  <circle cx="1625.52" cy="1072.28" r="8.62"/>
  <circle cx="641.89" cy="1036.64" r="4.52"/>
  <circle cx="1791.71" cy="1037.01" r="4.7"/>
  <circle cx="626.7" cy="1036.93" r="4.57"/>
  <path d="M1773.42,1034.15c.76-1.33,8.26-1.55,7.9-.06l-1.51,6.28c-.36,1.48-4.93,1-6.31.32s-1.31-4.38-.08-6.55Z"/>
  <g>
    <path d="M1352.78,254.81c0,140.73-114.08,254.81-254.81,254.81s-254.81-114.08-254.81-254.81S957.25,0,1097.97,0s254.81,114.08,254.81,254.81ZM1339.49,256.63c0-133.14-107.93-241.08-241.08-241.08s-241.08,107.93-241.08,241.08,107.93,241.08,241.08,241.08,241.08-107.93,241.08-241.08Z"/>
    <path d="M1211.55,367.39l.18,13.76-66.08.07.73-14.35c5.3-1.33,12.83-5.33,12.88-9.13l.48-34.59-77.05-.1c-.63-7.41-2.34-17.53.92-23.73l85.03-161.53,29-.4.1,159.38c6.46.45,11.42-.98,21.33-3.75l.47,29.68-21.81.61.53,33.47c.1,6.02,4.56,11.25,13.29,10.62ZM1159.72,297.27l-.8-99.49-51.6,99.41,52.4.08Z"/>
    <path d="M987.54,381.3c-1.73-2.03-1.86-8.98-1.16-13.02,11.05-1.29,14.34-8.4,14.38-18.16l.65-160.51-23.74-2.54.19-19.36c17.69-5.31,31.64-13.2,40.74-29.76l22.23-.05.85,219.43c.03,6.67,7.14,10.39,13.94,10.36l.24,13.24-68.31.39Z"/>
    <path d="M1313.22,276.53c8.4-100.88-51.43-190.71-144.8-224-81.99-29.23-173.32-3.69-230.35,61.53-38.55,44.08-58.41,102.14-54.42,161.27,3.33,49.37,25.21,92.65,56.93,129.12,36.48,41.94,84.93,62.18,138.83,73-54.42-.1-102.71-27.76-138.66-64.98-43.89-45.43-67.22-105.26-62.37-168.13,7.2-116.01,104.35-209.23,219.62-209.68,101.72-.4,191.94,71.45,216.22,169.94,16.71,67.81.1,137-43.94,191.59-42.41,52.57-107.06,82.63-174.17,85.59-7.18.32-13.42.37-17.77-5.43,16.39-1.36,30.64.2,45.92-2.59,51.51-9.42,99.51-32.02,133.84-71.71,30.65-35.44,51.13-77.46,55.13-125.51Z"/>
  </g>
  <g>
    <path d="M1417.37,1538.32l-23.6-7.23c-45.81-14.03-86.16-39.76-126.58-65l-31.12-22.44c-22.2,7.44-10.79-12.66-35.52-25.36-7.97-4.09-14.08-4.14-23.12-4l-12.55.2c-56.7,77.94-165.81,90.84-238.61,25.64-38.48-34.46-56.48-86.41-52.73-138.96,5.63-78.93,68.83-141,147.37-148.68,53.18-5.2,103.58,17.56,137.17,56.44,35.7,41.31,47.22,97.11,33.39,150.24,8.22,2.58,11.02,7.12,14.63,14.29,5.26,10.44,19.74,15.43,30.25,16.77,3.87-4.06,8.09-5.37,12.49-2.88,3.78,2.14,6,6.46,7.66,12.04l11.21,2c55.43,16.5,107.42,40.12,154.52,73.28l18.06,10.53c14.81,8.63,14.33,30.63,4.63,43.4-5.8,7.63-16.83,13.02-27.56,9.73ZM1184.26,1314.93c0-83.56-67.74-151.3-151.3-151.3s-151.3,67.74-151.3,151.3,67.74,151.3,151.3,151.3,151.3-67.74,151.3-151.3ZM1181.48,1386.75l6.03,12.64,9.04-22.66-10.7,8.09-3.34-3.88c-.54-.63-1.42,5-1.03,5.81ZM1227.66,1411.18c-5.23-12.9-17.31-10.33-23.75-18.1l-6.5-1.03c-1.44-.23-1.51,5.77.04,6.74,7.02,4.39,21.98,11.52,30.21,12.38ZM1227.85,1433.66c9.94-10.3,16-22.38,15.31-34.8-9.19,10.2-13.58,22.03-15.31,34.8ZM1242.94,1425.77c9.5-.2,9.75-7.51,5.79-13.15l-5.79,13.15ZM1356.42,1467.98l-66.18-32.92c-11-5.47-22.18-9.98-35.63-10.81l76.05,42.02c24.55,13.57,48.68,26.7,75.5,32.96l-49.74-31.25ZM1420.36,1519.7c5.64-7.3,8.01-13.99,8.99-22.54-6.75,5.5-10.13,12.96-8.99,22.54ZM1427.46,1519.24c9.8-1.39,10.73-9.38,5.65-15.29l-5.65,15.29Z"/>
    <path d="M809.65,1263.79l3.38,1.17c.78.27,1.79,3.58.95,3.74l-6.6,1.26-183.32-40.84-60.57-10.12,1.3-2.06,84.19,7.24c39.81,3.42,78.17,11.1,115.82,24.12l44.84,15.5Z"/>
    <path d="M803.95,1302.72c2.72.67,4.64,8.75,3.12,10.91-2.03,2.88-6.41,3.18-11.05,1.55l-90.54-31.89c33.84,2.61,66.42,11.49,98.47,19.43Z"/>
    <path d="M815.15,1218.01c5.66.45,9.54,1.26,12.75,4.52,2.62,2.67-.35,13.31-4.11,12.99l-94.36-23.53,32.34,1.79,53.38,4.24Z"/>
    <path d="M911.05,1391.63c-16.87-28.17-20.23-57.43-19.23-88.25.37-11.33,2.73-21.61,10.17-29.9,7.43-24.7,21.29-45.94,40.51-63.42l11.09-12.78c35.91-28.19,84.27-34.66,126.63-18.62,18.87,7.15,35.71,15.95,50.74,30,31.66,29.59,48.44,74.17,43.82,117.7-5.83,54.92-37.99,103.5-89.27,124.52-64.24,26.32-138.76.36-174.45-59.26ZM1168.91,1316.99c0-74.37-60.29-134.66-134.66-134.66s-134.66,60.29-134.66,134.66,60.29,134.66,134.66,134.66,134.66-60.29,134.66-134.66Z"/>
    <path d="M1110.8,1218.65c22.14,11.17,45.73,51.67,40.13,74.94-6.82-27.87-21.01-51.27-40.13-74.94Z"/>
  </g>
</svg>